<?xml version="1.0" encoding="UTF-8"?>
<svg width="395px" height="43px" viewBox="0 0 395 43" version="1.1" xmlns="http://www.w3.org/2000/svg" xmlns:xlink="http://www.w3.org/1999/xlink">
    <!-- Generator: Sketch 52.6 (67491) - http://www.bohemiancoding.com/sketch -->
    <title>lhd_h-r-2</title>
    <desc>Created with Sketch.</desc>
    <g id="Page-1" stroke="none" stroke-width="1" fill="none" fill-rule="evenodd">
        <g id="Local-Hack-Day-Build-2" transform="translate(-53.000000, -84.000000)">
            <g id="lhd_h-r-2" transform="translate(53.000000, 84.000000)">
                <path d="M49.5461842,0.0452631579 C50.2881816,0.040928735 51.0227404,0.193238841 51.7018421,0.492236842 C52.3594704,0.778768872 52.9566123,1.18774389 53.4614474,1.69736842 C53.9610241,2.20358496 54.362019,2.79836212 54.6439474,3.45131579 C54.9447273,4.13004616 55.0989616,4.86458711 55.0965789,5.60697368 L55.0965789,27.6897368 C55.0989101,28.4339426 54.9446951,29.1703189 54.6439474,29.8510526 C54.3580941,30.5085972 53.9577075,31.1101349 53.4614474,31.6276316 C52.9609322,32.138165 52.3624217,32.5423039 51.7018421,32.8157895 C51.0187417,33.0994578 50.2858334,33.2437311 49.5461842,33.2401316 L32.7592105,33.2401316 C31.2765362,33.2538012 29.8501543,32.67306 28.7986842,31.6276316 C27.7569917,30.5736932 27.1769121,29.1489364 27.1861842,27.6671053 L27.1861842,5.59 C27.1817381,4.84971155 27.3280421,4.11626651 27.6161842,3.43434211 C27.8944247,2.77877627 28.3046502,2.18751229 28.8213158,1.69736842 C29.3392049,1.1974799 29.942929,0.794997202 30.6035526,0.509210526 C31.2826543,0.210212525 32.0172132,0.0579024192 32.7592105,0.0622368421 L49.5461842,0.0452631579 Z M46.7172368,8.10210526 L35.5542105,8.10210526 L35.5542105,25.1776316 L46.7002632,25.1776316 L46.7172368,8.10210526 Z" id="Shape" fill="#1D1D1D" fill-rule="nonzero"></path>
                <path d="M69.8240789,8.33973684 C69.6490114,8.49616382 69.5517348,8.72176296 69.5581579,8.95644737 L69.5581579,24.3289474 C69.550951,24.5637817 69.6483644,24.7896979 69.8240789,24.9456579 C69.9980599,25.1051955 70.2274759,25.1904652 70.4634211,25.1832895 L85.6831579,25.1832895 C85.9227268,25.1817827 86.1530012,25.2758967 86.3229356,25.444769 C86.4928699,25.6136413 86.5884258,25.8433211 86.5884211,26.0828947 L86.5884211,32.3405263 C86.5925877,32.5813551 86.496227,32.8130308 86.3225,32.9798684 C86.1554805,33.1526888 85.923393,33.2471669 85.6831579,33.2401316 L66.7631579,33.2401316 C65.2799984,33.2563473 63.8526704,32.6752209 62.8026316,31.6276316 C61.7609391,30.5736932 61.1808595,29.1489364 61.1901316,27.6671053 L61.1901316,5.59 C61.1856855,4.84971155 61.3319895,4.11626651 61.6201316,3.43434211 C61.8916979,2.78075631 62.2941165,2.18964385 62.8026316,1.69736842 C63.3184412,1.1975612 63.9202983,0.795045305 64.5792105,0.509210526 C65.2661662,0.201777996 66.0105489,0.0436448951 66.7631579,0.0452631579 L85.6831579,0.0452631579 C86.173355,0.0545137996 86.5658768,0.454584008 86.5657895,0.944868421 L86.5657895,7.2025 C86.5657942,7.44207369 86.4702384,7.67175344 86.300304,7.84062574 C86.1303696,8.00949804 85.9000953,8.10361202 85.6605263,8.10210526 L70.4407895,8.10210526 C70.2130212,8.10293925 69.993516,8.18751924 69.8240789,8.33973684 Z" id="Path" fill="#1D1D1D"></path>
                <path d="M115.228684,0.0452631579 C115.972452,0.0414861567 116.708742,0.193755568 117.39,0.492236842 C118.711613,1.05754346 119.763686,2.11164357 120.326447,3.43434211 C120.627227,4.11307248 120.781462,4.84761343 120.779079,5.59 L120.779079,32.3405263 C120.785413,32.5806342 120.691045,32.81245 120.518816,32.9798684 C120.35062,33.1509413 120.11933,33.2450948 119.879474,33.2401316 L113.288026,33.2401316 C113.046344,33.2459886 112.812963,33.1518174 112.643026,32.9798684 C112.473078,32.8109218 112.379129,32.5801348 112.382763,32.3405263 L112.382763,23.8536842 C112.387479,23.619164 112.304793,23.3912739 112.150789,23.2143421 C111.991154,23.0444525 111.767164,22.949925 111.534079,22.9540789 L102.141974,22.9540789 C101.902455,22.9510078 101.671848,23.0448009 101.502469,23.2141799 C101.33309,23.3835589 101.239297,23.6141658 101.242368,23.8536842 L101.242368,32.3405263 C101.277046,32.5891687 101.192659,32.8396304 101.014585,33.0165915 C100.836511,33.1935526 100.585525,33.2763674 100.337105,33.2401316 L93.7965789,33.2401316 C93.5481588,33.2763674 93.297173,33.1935526 93.1190989,33.0165915 C92.9410249,32.8396304 92.8566381,32.5891687 92.8913158,32.3405263 L92.8913158,5.59 C92.8868697,4.84971155 93.0331737,4.11626651 93.3213158,3.43434211 C93.5878681,2.78222534 93.9844354,2.19122458 94.4868421,1.69736842 C95.0047312,1.1974799 95.6084553,0.794997202 96.2690789,0.509210526 C96.9538635,0.201240848 97.696522,0.0430642457 98.4473684,0.0452631579 L115.228684,0.0452631579 Z M112.399737,15.8364474 L112.399737,7.49105263 L101.242368,7.49105263 L101.242368,15.8421053 L112.399737,15.8364474 Z" id="Shape" fill="#1D1D1D" fill-rule="nonzero"></path>
                <path d="M323.286447,0.0452631579 C324.030215,0.0414861567 324.766505,0.193755568 325.447763,0.492236842 C326.769376,1.05754346 327.821449,2.11164357 328.384211,3.43434211 C328.68499,4.11307248 328.839225,4.84761343 328.836842,5.59 L328.836842,27.6897368 C328.839173,28.4339426 328.684958,29.1703189 328.384211,29.8510526 C328.098357,30.5085972 327.697971,31.1101349 327.201711,31.6276316 C326.70226,32.1368235 326.105882,32.5408219 325.447763,32.8157895 C324.762553,33.0990308 324.027884,33.243272 323.286447,33.2401316 L301.854342,33.2401316 C301.605922,33.2763674 301.354936,33.1935526 301.176862,33.0165915 C300.998788,32.8396304 300.914401,32.5891687 300.949079,32.3405263 L300.949079,0.944868421 C300.914401,0.696226011 300.998788,0.445764287 301.176862,0.268803207 C301.354936,0.0918421262 301.605922,0.00902729581 301.854342,0.0452631579 L323.286447,0.0452631579 Z M309.300132,25.1776316 L320.440526,25.1776316 L320.440526,8.10210526 L309.300132,8.10210526 L309.300132,25.1776316 Z" id="Shape" fill="#1D1D1D" fill-rule="nonzero"></path>
                <path d="M357.386579,0.0452631579 C358.128576,0.040928735 358.863135,0.193238841 359.542237,0.492236842 C360.863983,1.05929931 361.91728,2.11259553 362.484342,3.43434211 C362.785122,4.11307248 362.939356,4.84761343 362.936974,5.59 L362.936974,32.3405263 C362.940608,32.5801348 362.846659,32.8109218 362.676711,32.9798684 C362.506774,33.1518174 362.273393,33.2459886 362.031711,33.2401316 L355.440263,33.2401316 C355.200745,33.2432027 354.970138,33.1494097 354.800759,32.9800306 C354.63138,32.8106516 354.537587,32.5800448 354.540658,32.3405263 L354.540658,23.8536842 C354.546062,23.6180332 354.46103,23.3892572 354.303026,23.2143421 C354.144665,23.0426305 353.919818,22.947741 353.686316,22.9540789 L344.294211,22.9540789 C344.054692,22.9510078 343.824085,23.0448009 343.654706,23.2141799 C343.485327,23.3835589 343.391534,23.6141658 343.394605,23.8536842 L343.394605,32.3405263 C343.428864,32.5880444 343.34517,32.8373153 343.168479,33.0140056 C342.991789,33.1906958 342.742518,33.2743905 342.495,33.2401316 L335.948816,33.2401316 C335.701298,33.2743905 335.452027,33.1906958 335.275337,33.0140056 C335.098646,32.8373153 335.014952,32.5880444 335.049211,32.3405263 L335.049211,5.59 C335.045611,4.85035085 335.189884,4.11744249 335.473553,3.43434211 C335.74412,2.78299463 336.142339,2.19240016 336.644737,1.69736842 C337.160546,1.1975612 337.762404,0.795045305 338.421316,0.509210526 C339.10811,0.201283351 339.8526,0.0431273926 340.605263,0.0452631579 L357.386579,0.0452631579 Z M354.557632,15.8364474 L354.557632,7.49105263 L343.411579,7.49105263 L343.411579,15.8421053 L354.557632,15.8364474 Z" id="Shape" fill="#1D1D1D" fill-rule="nonzero"></path>
                <path d="M394.445789,0.305526316 C394.6201,0.47196427 394.716572,0.70390772 394.711711,0.944868421 L394.711711,17.8732895 C394.713537,18.6174437 394.559344,19.3537162 394.259079,20.0346053 C393.693772,21.3562181 392.639672,22.4082911 391.316974,22.9710526 C390.638243,23.2718326 389.903702,23.4260669 389.161316,23.4236842 L385.557237,23.4236842 L385.557237,32.3405263 C385.560871,32.5801348 385.466922,32.8109218 385.296974,32.9798684 C385.128778,33.1509413 384.897488,33.2450948 384.657632,33.2401316 L378.060526,33.2401316 C377.828109,33.249455 377.60379,33.1539118 377.449474,32.9798684 C377.290454,32.805571 377.205265,32.5763728 377.211842,32.3405263 L377.211842,23.4236842 L373.607763,23.4236842 C372.863488,23.4266936 372.126972,23.2724494 371.446447,22.9710526 C370.788903,22.6851994 370.187365,22.2848128 369.669868,21.7885526 C369.158878,21.2906048 368.754616,20.6938364 368.481711,20.0346053 C368.198469,19.349395 368.054228,18.6147265 368.057368,17.8732895 L368.057368,0.944868421 C368.023109,0.697350304 368.106804,0.44807942 368.283494,0.271389166 C368.460185,0.0946989114 368.709456,0.0110042326 368.956974,0.0452631579 L375.220263,0.0452631579 C375.459782,0.0421920284 375.690388,0.135985077 375.859767,0.30536411 C376.029147,0.474743143 376.12294,0.705349983 376.119868,0.944868421 L376.119868,15.0896053 C376.114464,15.3252562 376.199496,15.5540322 376.3575,15.7289474 C376.514047,15.903223 376.740138,15.9986373 376.974211,15.9892105 L385.743947,15.9892105 C385.992367,16.0254464 386.243353,15.9426316 386.421427,15.7656705 C386.599501,15.5887094 386.683888,15.3382477 386.649211,15.0896053 L386.649211,0.944868421 C386.613641,0.693952954 386.699405,0.441063324 386.88027,0.263547974 C387.061134,0.0860326232 387.315583,0.00501059243 387.565789,0.0452631579 L393.789474,0.0452631579 C394.035537,0.0333344369 394.274774,0.128203945 394.445789,0.305526316 Z" id="Path" fill="#1D1D1D"></path>
                <path d="M23.5990789,25.1719737 C23.8374335,25.1711976 24.0636487,25.2770415 24.2157895,25.4605263 C24.3753271,25.6345073 24.4605968,25.8639232 24.4534211,26.0998684 L24.4534211,32.3292105 C24.4599978,32.565057 24.3748091,32.7942552 24.2157895,32.9685526 C24.0583177,33.1415262 23.8328642,33.2366718 23.5990789,33.2288158 L1.13157895,33.2288158 C0.883158837,33.2650517 0.63217297,33.1822368 0.454098927,33.0052757 C0.276024884,32.8283147 0.191638117,32.5778529 0.226315789,32.3292105 L0.226315789,0.944868421 C0.191638117,0.696226011 0.276024884,0.445764287 0.454098927,0.268803207 C0.63217297,0.0918421262 0.883158837,0.00902729581 1.13157895,0.0452631579 L7.65513158,0.0452631579 C7.9026497,0.0110042326 8.15192058,0.0946989114 8.32861083,0.271389166 C8.50530109,0.44807942 8.58899577,0.697350304 8.55473684,0.944868421 L8.55473684,24.3289474 C8.54531007,24.5630204 8.64072432,24.7891107 8.815,24.9456579 C8.98929739,25.1046775 9.21849563,25.1898662 9.45434211,25.1832895 L23.5990789,25.1719737 Z" id="Path" fill="#1D1D1D"></path>
                <path d="M150.5,25.1719737 C150.720775,25.1843407 150.926145,25.2890791 151.065789,25.4605263 C151.225327,25.6345073 151.310597,25.8639232 151.303421,26.0998684 L151.303421,32.3292105 C151.309998,32.565057 151.224809,32.7942552 151.065789,32.9685526 C150.909242,33.1428283 150.683152,33.2382426 150.449079,33.2288158 L127.987237,33.2288158 C127.739719,33.2630747 127.490448,33.17938 127.313758,33.0026898 C127.137067,32.8259995 127.053373,32.5767286 127.087632,32.3292105 L127.087632,0.944868421 C127.053373,0.697350304 127.137067,0.44807942 127.313758,0.271389166 C127.490448,0.0946989114 127.739719,0.0110042326 127.987237,0.0452631579 L134.527763,0.0452631579 C134.775281,0.0110042326 135.024552,0.0946989114 135.201242,0.271389166 C135.377933,0.44807942 135.461627,0.697350304 135.427368,0.944868421 L135.427368,24.3289474 C135.42103,24.5624493 135.51592,24.7872961 135.687632,24.9456579 C135.864282,25.1045198 136.095138,25.1895721 136.332632,25.1832895 L150.5,25.1719737 Z" id="Path" fill="#1D1D1D"></path>
                <path d="M197.460526,12.7811842 L193.075658,24.4760526 L197.460526,24.4760526 L197.460526,32.3122368 C197.463923,32.5540568 197.365343,32.7861308 197.188947,32.9515789 C197.01094,33.1253338 196.769956,33.2192767 196.521316,33.2118421 L189.675263,33.2118421 C189.426848,33.2179838 189.186348,33.1242299 189.007632,32.9515789 C188.831236,32.7861308 188.732656,32.5540568 188.736053,32.3122368 L188.736053,21.3642105 C188.745327,21.1335681 188.657008,20.9096897 188.492763,20.7475 C188.318364,20.584942 188.085941,20.4993123 187.847763,20.5098684 L178.070921,20.5098684 C177.826421,20.5023548 177.588058,20.5871958 177.403289,20.7475 C177.224817,20.9019099 177.12512,21.1283052 177.131711,21.3642105 L177.131711,32.3122368 C177.131711,32.9119737 176.820526,33.2118421 176.1925,33.2118421 L169.403026,33.2118421 C168.775,33.2118421 168.463816,32.9119737 168.463816,32.3122368 L168.463816,0.944868421 C168.463816,0.345131579 168.775,0.0452631579 169.403026,0.0452631579 L176.1925,0.0452631579 C176.820526,0.0452631579 177.131711,0.345131579 177.131711,0.944868421 L177.131711,11.5590789 C177.131711,12.1588158 177.442895,12.4586842 178.070921,12.4586842 L187.842105,12.4586842 C188.084161,12.4666195 188.318343,12.372125 188.487105,12.1984211 C188.6487,12.0253293 188.736039,11.7958104 188.730395,11.5590789 L188.730395,0.944868421 C188.724834,0.702628748 188.823774,0.469708491 189.001974,0.305526316 C189.18069,0.132875363 189.42119,0.0391214343 189.669605,0.0452631579 L196.532632,0.0452631579 C196.781272,0.0378286003 197.022256,0.131771447 197.200263,0.305526316 C197.374291,0.471726627 197.468998,0.704376107 197.460526,0.944868421 L197.460526,12.7811842 Z" id="Path" fill="#1D1D1D"></path>
                <path d="M225.093684,21.4490789 L231.221184,13.1772368 L225.093684,13.1772368 L225.093684,5.58434211 C225.092186,4.8426301 225.244376,4.10865189 225.540658,3.42868421 C225.829956,2.76432804 226.253778,2.1671247 226.785395,1.67473684 C227.331994,1.17480278 227.962015,0.774576779 228.646842,0.492236842 C229.363367,0.192152 230.133191,0.040111785 230.91,0.0452631579 L247.317895,0.0452631579 C247.566535,0.0378286003 247.807519,0.131771447 247.985526,0.305526316 C248.165207,0.469122646 248.266142,0.701892175 248.262763,0.944868421 L248.262763,7.16855263 C248.265417,7.411383 248.164604,7.64386833 247.985526,7.80789474 C247.807519,7.98164961 247.566535,8.07559245 247.317895,8.06815789 L234.802632,8.06815789 C234.556459,8.06087634 234.316408,8.14560015 234.129342,8.30578947 C233.950201,8.45970427 233.850356,8.68643534 233.857763,8.9225 L233.857763,24.3289474 C233.850356,24.565012 233.950201,24.7917431 234.129342,24.9456579 C234.316408,25.1058472 234.556459,25.190571 234.802632,25.1832895 L247.351842,25.1832895 C247.600036,25.1784042 247.84007,25.2719768 248.019474,25.4435526 C248.197373,25.6084169 248.297946,25.8403526 248.296711,26.0828947 L248.296711,32.3122368 C248.297946,32.554779 248.197373,32.7867147 248.019474,32.9515789 C247.841466,33.1253338 247.600483,33.2192767 247.351842,33.2118421 L230.943947,33.2118421 C230.169386,33.2162023 229.401159,33.0721597 228.680789,32.7875 C227.989087,32.5159871 227.356848,32.1124302 226.819342,31.5993421 C226.289664,31.0964638 225.866382,30.4923242 225.574605,29.8227632 C225.278323,29.1427955 225.126134,28.4088173 225.127632,27.6671053 L225.093684,21.4490789 Z" id="Path" fill="#1D1D1D"></path>
                <path d="M272.806711,14.0202632 C272.707776,14.1026548 272.685919,14.2459374 272.755789,14.3540789 L283.720789,32.4593421 C283.859204,32.6172333 283.877605,32.8472431 283.766053,33.0251316 C283.634354,33.1825063 283.432455,33.263266 283.228553,33.2401316 L275.064211,33.2401316 C274.788182,33.2355317 274.517742,33.1615983 274.277763,33.0251316 C274.04087,32.8919627 273.845143,32.6962354 273.711974,32.4593421 L266.803684,19.5197368 C266.7075,19.3613158 266.628289,19.3443421 266.560395,19.4688158 C264.67443,22.1619737 263.674868,23.5990789 263.561711,23.7801316 C263.392604,23.9898917 263.253589,24.2222188 263.148684,24.4703947 C263.03891,24.7323026 262.97941,25.0125309 262.973289,25.2964474 L262.973289,32.3122368 C262.973289,32.9119737 262.662105,33.2118421 262.039737,33.2118421 L255.250263,33.2118421 C254.627895,33.2118421 254.316711,32.9119737 254.316711,32.3122368 L254.316711,0.944868421 C254.316711,0.345131579 254.627895,0.0452631579 255.250263,0.0452631579 L262.039737,0.0452631579 C262.662105,0.0452631579 262.973289,0.345131579 262.973289,0.944868421 L262.973289,14.4842105 L272.948158,0.707236842 C273.136018,0.497418716 273.37051,0.334630921 273.632763,0.231973684 C273.896653,0.114552541 274.181355,0.0510717781 274.470132,0.0452631579 L282.634474,0.0452631579 C282.894737,0.0452631579 283.053158,0.1075 283.098421,0.231973684 C283.143684,0.356447368 283.098421,0.514868421 282.928684,0.707236842 L272.806711,14.0202632 Z" id="Path" fill="#1D1D1D"></path>
                <polygon id="Rectangle" fill="#DA1E1E" points="205.845526 0.113157895 223.537763 0.113157895 216.448421 15.3668421 221.416053 15.3668421 226.310132 15.3668421 205.845526 42.9886842 206.660263 22.4335526 197.4775 22.4335526"></polygon>
            </g>
        </g>
    </g>
</svg>